HIERARCHY
ROOT Hips
{
	OFFSET -3.958830 18.904000 13.208200
	CHANNELS 6 Xposition Yposition Zposition Zrotation Yrotation Xrotation 
	JOINT LHipJoint
	{
		OFFSET 0.000000 0.000000 0.000000
		CHANNELS 3 Zrotation Yrotation Xrotation
		JOINT LeftUpLeg
		{
			OFFSET 1.800000 -1.400000 0.085000
			CHANNELS 3 Zrotation Yrotation Xrotation
			JOINT LeftLeg
			{
				OFFSET 2.215000 -6.000000 0.000000
				CHANNELS 3 Zrotation Yrotation Xrotation
				JOINT LeftFoot
				{
					OFFSET 2.500000 -6.900000 0.000000
					CHANNELS 3 Zrotation Yrotation Xrotation
					JOINT LeftToeBase
					{
						OFFSET 0.200000 -0.500000 1.950000
						CHANNELS 3 Zrotation Yrotation Xrotation
						End Site
						{
							OFFSET 0.000000 0.000000 0.000000
						}
					}
				}
			}
		}
	}
	JOINT RHipJoint
	{
		OFFSET 0.000000 0.000000 0.000000
		CHANNELS 3 Zrotation Yrotation Xrotation
		JOINT RightUpLeg
		{
			OFFSET -1.800000 -1.400000 0.085000
			CHANNELS 3 Zrotation Yrotation Xrotation
			JOINT RightLeg
			{
				OFFSET -2.215000 -6.000000 0.000000
				CHANNELS 3 Zrotation Yrotation Xrotation
				JOINT RightFoot
				{
					OFFSET -2.500000 -6.900000 0.000000
					CHANNELS 3 Zrotation Yrotation Xrotation
					JOINT RightToeBase
					{
						OFFSET -0.200000 -0.500000 1.950000
						CHANNELS 3 Zrotation Yrotation Xrotation
						End Site
						{
							OFFSET 0.000000 0.000000 0.000000
						}
					}
				}
			}
		}
	}
	JOINT LowerBack
	{
		OFFSET 0.000000 0.000000 0.000000
		CHANNELS 3 Zrotation Yrotation Xrotation
		JOINT Spine
		{
			OFFSET -0.087000 1.940000 -0.288900
			CHANNELS 3 Zrotation Yrotation Xrotation
			JOINT Spine1
			{
				OFFSET 0.000000 1.950000 0.060000
				CHANNELS 3 Zrotation Yrotation Xrotation
				JOINT Neck
				{
					OFFSET 0.000000 0.000000 0.000000
					CHANNELS 3 Zrotation Yrotation Xrotation
					JOINT Neck1
					{
						OFFSET 0.000000 1.600000 0.340000
						CHANNELS 3 Zrotation Yrotation Xrotation
						JOINT Head
						{
							OFFSET 0.000000 1.667000 -0.240000
							CHANNELS 3 Zrotation Yrotation Xrotation
							End Site
							{
								OFFSET 0.000000 0.000000 0.000000
							}
						}
					}
				}
				JOINT LeftShoulder
				{
					OFFSET 0.000000 0.000000 0.000000
					CHANNELS 3 Zrotation Yrotation Xrotation
					JOINT LeftArm
					{
						OFFSET 2.700000 1.550000 -0.730000
						CHANNELS 3 Zrotation Yrotation Xrotation
						JOINT LeftForeArm
						{
							OFFSET 5.450000 0.000000 0.000000
							CHANNELS 3 Zrotation Yrotation Xrotation
							JOINT LeftHand
							{
								OFFSET 3.450000 0.000000 0.000000
								CHANNELS 3 Zrotation Yrotation Xrotation
								JOINT LeftHandIndex1
								{
									OFFSET 0.750000 0.000000 0.000000
									CHANNELS 3 Zrotation Yrotation Xrotation
									End Site
									{
										OFFSET 0.000000 0.000000 0.000000
									}
								}
							}
						}
					}
				}
				JOINT RightShoulder
				{
					OFFSET 0.000000 0.000000 0.000000
					CHANNELS 3 Zrotation Yrotation Xrotation
					JOINT RightArm
					{
						OFFSET -2.700000 1.550000 -0.730000
						CHANNELS 3 Zrotation Yrotation Xrotation
						JOINT RightForeArm
						{
							OFFSET -5.450000 0.000000 0.000000
							CHANNELS 3 Zrotation Yrotation Xrotation
							JOINT RightHand
							{
								OFFSET -3.450000 0.000000 0.000000
								CHANNELS 3 Zrotation Yrotation Xrotation
								JOINT RightHandIndex1
								{
									OFFSET -0.750000 0.000000 0.000000
									CHANNELS 3 Zrotation Yrotation Xrotation
									End Site
									{
										OFFSET 0.000000 0.000000 0.000000
									}
								}
							}
						}
					}
				}
			}
		}
	}
}
MOTION
Frames: 14
Frame Time: 0.016667
-0.051540 12.073210 -3.968530 -3.956206 49.925058 -27.496495 -15.556345 9.600167 4.161425 -0.696832 -15.854801 -30.520817 37.842673 -6.895321 143.087606 3.350794 17.298458 -0.727790 0.599460 0.527410 0.363940 18.744223 -4.637798 6.642992 -28.691345 20.402031 -62.969953 -13.028235 -63.002672 152.748372 -6.551109 -26.397511 -1.841018 0.319610 -0.283210 0.026630 -3.728830 -3.696184 -11.356959 23.936283 -13.261681 48.625630 -18.658750 -1.223209 -9.846318 6.999797 -5.708655 -13.657550 -25.797687 6.397807 72.396528 3.240520 -16.189100 -12.034200 -52.938901 -16.480078 1.457990 -24.198209 8.840237 -2.613065 -6.702595 -3.806212 -1.100440 -3.066067 2.681662 0.537960 -0.383330 0.357470 0.096210 38.329535 21.801935 7.791675 15.118059 -0.333887 -6.594230 34.228200 24.157658 4.610094 2.147726 -1.433815 0.051050 0.240630 -0.132650 -0.070830 
-0.055410 12.072350 -3.965370 -3.290255 49.670957 -27.112430 -15.545375 9.560829 4.138259 -0.729335 -15.721295 -30.345815 37.911057 -6.670821 143.094106 3.339326 17.282364 -0.729800 0.607250 0.535680 0.372890 18.753645 -4.696057 6.626179 -28.434143 20.598257 -62.889292 -13.192530 -62.674531 153.056704 -6.522225 -26.238590 -1.825452 0.324640 -0.288940 0.030060 -3.819715 -3.481349 -11.358033 23.259836 -13.291403 48.819795 -18.687701 -1.364342 -9.522716 6.916452 -5.718909 -13.546263 -25.570321 6.504512 72.223784 3.252110 -15.773920 -12.356640 -52.224182 -16.481183 1.693653 -24.494870 8.730245 -2.684626 -6.834083 -3.976522 -1.097958 -3.059617 2.695432 0.544960 -0.385890 0.364390 0.095120 37.733536 21.829560 7.510015 14.810372 -0.214815 -6.899525 37.807443 25.387130 5.462526 2.148167 -1.474762 0.051530 0.240440 -0.134700 -0.075180 
-0.062470 12.069500 -3.959250 -1.998115 49.123465 -26.270647 -15.524255 9.497285 4.094572 -0.803436 -15.469911 -30.075442 38.081026 -6.427560 142.984519 3.325443 17.275831 -0.735971 0.619290 0.551970 0.386540 18.769333 -4.793479 6.607124 -27.982904 20.980717 -62.957494 -13.462999 -62.314232 153.752977 -6.491554 -26.028964 -1.798632 0.333540 -0.297450 0.033510 -3.966866 -3.122977 -11.360449 21.954482 -13.217305 49.124463 -18.650496 -1.564084 -9.007276 6.749691 -5.746941 -13.308764 -25.187396 6.727835 71.774736 3.230440 -14.985170 -12.974390 -50.901026 -16.368322 2.037088 -25.027780 8.532632 -2.781856 -7.153932 -4.218763 -1.097188 -3.051207 2.710676 0.555550 -0.388990 0.375840 0.093230 36.676978 21.729416 7.039686 14.293907 -0.138617 -7.466934 44.429979 27.913608 7.377618 2.153614 -1.546863 0.052090 0.243290 -0.138220 -0.081740 
-0.064700 12.062670 -3.955010 -0.682555 48.456154 -25.446362 -15.494200 9.391567 4.054973 -0.877953 -15.189113 -29.917971 38.158595 -5.672331 143.225238 3.294149 17.215128 -0.732166 0.630030 0.566950 0.404940 18.807251 -4.901746 6.585764 -27.810928 21.285066 -63.063318 -13.976766 -61.409951 154.455200 -6.410772 -25.620559 -1.755287 0.343370 -0.309220 0.039200 -4.161138 -2.677430 -11.371930 20.816860 -13.269973 49.361070 -19.009234 -2.019460 -8.306150 6.638168 -5.650694 -12.802292 -24.242599 6.627453 70.925602 2.800720 -14.036810 -13.808520 -49.437664 -16.045291 2.366094 -25.467248 8.315735 -2.921078 -7.320929 -4.667632 -1.072707 -3.046483 2.729296 0.566880 -0.388830 0.387980 0.087340 35.271418 21.172121 6.423548 14.044515 0.066502 -8.167110 53.141084 31.776825 10.743020 2.176829 -1.630328 0.050760 0.245840 -0.139970 -0.093400 
-0.054190 12.055440 -3.954090 0.163417 47.721760 -24.905195 -15.462310 9.321340 4.000183 -1.021477 -14.768846 -29.337874 38.110489 -4.723121 143.528162 3.257347 17.133329 -0.720380 0.634720 0.571050 0.421460 18.856491 -5.028763 6.551284 -27.598562 21.537993 -63.302446 -14.933539 -59.453240 155.096624 -6.242171 -24.899515 -1.683773 0.349280 -0.318290 0.043330 -4.354319 -2.280173 -11.353306 20.467216 -13.538280 49.286022 -19.616088 -2.748324 -7.575597 6.606665 -5.616992 -12.055267 -23.431348 6.535289 69.646709 2.050820 -13.288400 -14.535480 -48.225079 -15.384877 2.457683 -25.932153 8.139595 -3.129470 -7.372065 -5.260691 -1.028625 -3.044611 2.750243 0.573320 -0.384850 0.392050 0.080030 33.914839 20.056254 5.854858 14.065907 0.137660 -8.808428 63.080511 36.543240 15.830382 2.214298 -1.716437 0.046220 0.247650 -0.139250 -0.106480 
-0.045370 12.044510 -3.954050 0.746214 47.100238 -24.307427 -15.429753 9.221532 3.979665 -0.919839 -14.532607 -29.178572 37.785661 -2.927374 144.168480 3.221543 17.006191 -0.692325 0.628700 0.560860 0.425920 18.907758 -5.110621 6.515677 -27.439429 21.679458 -63.809981 -16.063503 -57.792597 156.020375 -6.098342 -24.299074 -1.617444 0.347190 -0.319750 0.046760 -4.511279 -1.967459 -11.345741 20.307499 -13.970315 49.043182 -20.062250 -3.629141 -6.965165 6.531557 -5.874446 -11.307159 -23.458201 6.836313 67.708915 1.228000 -12.845850 -15.008550 -47.034612 -14.540908 2.373383 -26.686501 8.011008 -3.426242 -7.219363 -6.025396 -0.954196 -3.050367 2.780731 0.570210 -0.377890 0.385570 0.073030 32.714485 18.806717 5.417153 14.289683 0.169582 -9.300875 74.677898 41.352919 22.900386 2.269885 -1.798441 0.041740 0.245980 -0.133640 -0.113740 
-0.043570 12.040450 -3.954850 1.198007 46.758458 -24.003317 -15.409989 9.134485 3.996113 -1.170438 -14.536199 -29.133999 37.292859 -0.960375 144.966026 3.192549 16.901607 -0.666565 0.623820 0.552130 0.425950 18.953103 -5.183262 6.453669 -27.082533 21.695274 -64.007356 -17.427513 -54.801394 156.544959 -5.833530 -23.232525 -1.498634 0.346380 -0.316820 0.048490 -4.614651 -1.763095 -11.334082 20.037860 -14.460418 49.228138 -20.232837 -4.652991 -6.619574 6.381428 -6.238446 -10.567874 -23.901086 7.392172 65.727011 0.579270 -12.627950 -15.632320 -46.227481 -13.649629 2.142052 -27.442986 7.913610 -3.762465 -6.616386 -6.890983 -0.863192 -3.059740 2.807751 0.568200 -0.373230 0.378220 0.069880 32.105199 17.478416 5.081398 14.780592 0.076595 -9.655390 87.396730 45.715734 32.064159 2.333210 -1.860565 0.036410 0.250310 -0.127280 -0.116960 
-0.044260 12.036030 -3.951930 1.790555 46.319430 -23.569653 -15.392455 9.071420 4.022102 -1.210503 -14.571432 -29.038129 36.816409 1.041148 145.750466 3.175178 16.816050 -0.641953 0.615990 0.541820 0.418860 18.986117 -5.241603 6.390911 -26.480277 21.823467 -64.360714 -18.661239 -51.974352 157.078516 -5.585307 -22.252010 -1.379663 0.344050 -0.311760 0.049640 -4.666366 -1.641006 -11.318064 19.525468 -14.722195 49.532722 -20.008143 -5.513711 -6.598278 6.108042 -6.746621 -9.844856 -24.812910 8.147750 63.709670 -0.155170 -12.621840 -16.063280 -45.645186 -12.606093 1.766819 -28.133871 7.807167 -4.040984 -6.158403 -7.605724 -0.785948 -3.070792 2.830598 0.559670 -0.367840 0.367520 0.068510 32.029435 16.144588 4.791453 15.610967 -0.227638 -9.992205 101.661862 48.654448 43.419201 2.393527 -1.903641 0.033870 0.253090 -0.119960 -0.115210 
-0.042160 12.034430 -3.950190 2.165624 45.945684 -23.384460 -15.381029 9.036546 4.052935 -1.100688 -14.633094 -28.832075 36.308650 2.989178 146.469570 3.158609 16.750906 -0.624121 0.611590 0.537040 0.410980 19.006394 -5.291850 6.316512 -25.704836 21.949095 -64.338879 -19.739961 -49.135448 157.325146 -5.345045 -21.321964 -1.260030 0.345910 -0.308550 0.049470 -4.680606 -1.596757 -11.291415 19.214652 -14.966851 49.929355 -19.556016 -6.304136 -6.872490 5.772587 -7.309708 -9.033049 -25.920954 8.902126 61.896534 -0.956640 -12.891670 -16.630740 -45.550874 -11.446303 1.276862 -28.571889 7.695725 -4.256049 -5.848612 -8.223468 -0.721226 -3.075495 2.848256 0.551750 -0.364490 0.357600 0.067760 32.573925 14.765070 4.455203 16.803883 -0.636268 -10.430628 116.265537 50.266058 57.220666 2.412761 -1.918168 0.032110 0.258490 -0.112710 -0.112140 
-0.039280 12.035930 -3.950460 2.489012 45.622442 -23.251649 -15.375814 9.023363 4.089020 -0.960792 -14.739144 -28.626755 35.778128 4.763056 147.027810 3.144704 16.723228 -0.617671 0.607590 0.531900 0.405040 19.017571 -5.332975 6.245384 -24.921998 22.051623 -64.167978 -20.788097 -46.030856 157.378063 -5.093316 -20.370614 -1.132066 0.349370 -0.306410 0.050390 -4.663705 -1.609155 -11.261500 18.868093 -15.062213 50.300652 -18.913032 -6.960398 -7.274377 5.408461 -7.787132 -8.143612 -26.780467 9.555939 60.490609 -1.886010 -13.187040 -17.073740 -45.805804 -10.231975 0.732115 -28.786311 7.478998 -4.404295 -5.619876 -8.719658 -0.669870 -3.082531 2.861904 0.542920 -0.359120 0.346660 0.064770 33.522435 13.347709 4.038558 18.396557 -0.780162 -10.785287 130.028498 50.562180 72.765868 2.371031 -1.925595 0.029960 0.262340 -0.104150 -0.110990 
-0.036070 12.042200 -3.948510 2.681003 45.018027 -23.142951 -15.370210 9.034428 4.142446 -0.480607 -14.841309 -28.507321 35.239146 6.642770 147.577057 3.137407 16.704963 -0.614892 0.605940 0.528990 0.403000 19.020729 -5.365760 6.168828 -23.880516 22.309940 -64.031924 -21.619137 -43.235242 157.250925 -4.892823 -19.630125 -1.031358 0.351690 -0.309140 0.051910 -4.604944 -1.688279 -11.225515 18.616634 -14.975108 50.590920 -18.141312 -7.259161 -7.716000 5.090658 -8.184255 -7.508549 -27.750411 10.247090 59.732350 -2.726410 -13.550400 -17.371390 -46.233276 -9.207721 0.150467 -28.966566 7.345311 -4.551225 -5.495658 -9.092967 -0.632545 -3.086375 2.868648 0.537230 -0.358240 0.341360 0.060770 34.582362 12.210902 3.857519 20.410715 -0.934390 -10.758224 140.628971 49.703243 86.119945 2.310456 -1.950502 0.030810 0.263910 -0.097820 -0.109740 
-0.029670 12.045300 -3.946910 2.836473 44.375988 -23.007220 -15.367812 9.057613 4.194105 -0.002545 -14.899667 -28.485625 34.811489 8.250849 148.067287 3.129368 16.708981 -0.618656 0.599630 0.521060 0.400210 19.020453 -5.375595 6.110327 -23.016388 22.626443 -64.014870 -22.346112 -40.706173 157.129913 -4.722168 -19.020164 -0.945001 0.353690 -0.311090 0.051560 -4.529309 -1.802882 -11.197014 18.405102 -14.771280 50.844086 -17.339767 -7.424105 -8.354045 4.791563 -8.475522 -6.795081 -28.402605 10.721812 59.188542 -3.720030 -13.824100 -17.533810 -47.095580 -8.094059 -0.536301 -28.995050 7.385498 -4.631568 -5.310252 -9.085896 -0.632114 -3.097109 2.860779 0.531910 -0.353620 0.333040 0.053540 36.000260 10.969950 3.652797 22.596649 -1.053567 -10.484879 149.752174 48.613169 99.539562 2.246457 -1.976579 0.026870 0.265790 -0.088450 -0.112470 
-0.020570 12.046160 -3.944660 2.963255 43.765071 -22.725699 -15.370428 9.082923 4.261615 0.489202 -15.042500 -28.733985 34.435422 9.695866 148.578720 3.128817 16.727953 -0.623023 0.592010 0.509740 0.400980 19.015416 -5.358006 6.062345 -22.225694 22.906219 -64.107906 -22.936053 -38.560395 156.948645 -4.591766 -18.567705 -0.879277 0.352290 -0.313320 0.051710 -4.426618 -1.970387 -11.176542 18.208011 -14.443542 50.890387 -16.406618 -7.393984 -9.166809 4.506004 -8.746926 -6.061583 -29.056870 11.126715 58.832583 -4.813330 -14.001620 -17.535690 -48.207565 -6.851512 -1.284871 -29.089442 7.485548 -4.805859 -4.670408 -9.322720 -0.614374 -3.111738 2.856885 0.527240 -0.348080 0.325660 0.045640 37.617531 9.684383 3.465284 24.854287 -1.266038 -10.128826 157.549295 47.621937 113.052196 2.188435 -1.996714 0.022780 0.266790 -0.080170 -0.116980 
-0.012800 12.048390 -3.938470 3.049443 43.246969 -22.471936 -15.377504 9.116812 4.333487 1.023242 -15.209196 -29.115974 34.122672 10.918786 149.002439 3.129306 16.752418 -0.631939 0.585650 0.501860 0.405120 19.003077 -5.330805 6.019139 -21.450413 23.136979 -64.081243 -23.280912 -37.104324 156.695345 -4.515758 -18.309581 -0.843549 0.350430 -0.321020 0.050280 -4.311177 -2.156943 -11.165201 17.808950 -14.059105 50.914674 -15.411943 -7.230122 -10.096980 4.274185 -8.861639 -5.401571 -29.408171 11.465745 59.092175 -5.801280 -14.001520 -17.564460 -49.430109 -5.688355 -1.938574 -29.126601 7.824244 -5.057065 -3.784779 -9.688750 -0.595566 -3.118957 2.854548 0.529130 -0.346830 0.324930 0.035850 39.246934 8.506025 3.252443 26.826139 -1.501082 -9.908164 164.252645 46.885719 126.424079 2.134983 -2.007170 0.018940 0.267890 -0.073360 -0.123830 
